<svg width="220" height="220" viewBox="0 0 128 128" xmlns="http://www.w3.org/2000/svg" aria-label="gira logo">
  <path fill="#1b3a2d" fill-rule="evenodd" d="M64 12C35.281 12 12 35.281 12 64c0 28.719 23.281 52 52 52s52-23.281 52-52V46H74v18h20c0 16.569-13.431 30-30 30-16.569 0-30-13.431-30-30 0-16.569 13.431-30 30-30h20V12H64z" clip-rule="evenodd"/>
  <path fill="#1b3a2d" d="M22 106l10-14c9.001 5.33 19.517 8.394 30.75 8.394 14.625 0 28.035-5.195 38.5-13.844V109c-11.477 7.498-25.191 11.875-39.625 11.875-14.848 0-28.945-4.593-39.625-14.875z"/>
</svg>
